<svg xmlns="http://www.w3.org/2000/svg" viewBox="233 229 561 565">
  <path d="M 467.00 223.00 L 459.00 229.00 L 448.00 278.00 L 393.00 301.00 L 357.00 277.00 L 343.00 275.00 L 279.00 337.00 L 278.00 350.00 L 304.00 393.00 L 281.00 448.00 L 238.00 457.00 L 228.00 464.00 L 227.00 558.00 L 234.00 566.00 L 283.00 578.00 L 304.00 631.00 L 279.00 670.00 L 278.00 683.00 L 339.00 746.00 L 352.00 748.00 L 394.00 722.00 L 450.00 746.00 L 457.00 788.00 L 465.00 799.00 L 557.00 800.00 L 566.00 791.00 L 576.00 745.00 L 630.00 722.00 L 667.00 746.00 L 681.00 748.00 L 744.00 687.00 L 746.00 673.00 L 720.00 630.00 L 743.00 576.00 L 788.00 567.00 L 797.00 558.00 L 797.00 467.00 L 789.00 458.00 L 741.00 447.00 L 720.00 392.00 L 743.00 355.00 L 746.00 340.00 L 685.00 277.00 L 670.00 275.00 L 629.00 301.00 L 574.00 276.00 L 566.00 232.00 L 557.00 223.00 Z M 480.00 246.00 L 544.00 246.00 L 556.00 297.00 L 593.00 308.00 L 628.00 327.00 L 675.00 300.00 L 721.00 346.00 L 694.00 394.00 L 712.00 429.00 L 723.00 468.00 L 774.00 480.00 L 773.00 545.00 L 723.00 556.00 L 711.00 597.00 L 693.00 630.00 L 721.00 677.00 L 675.00 723.00 L 628.00 696.00 L 593.00 715.00 L 556.00 726.00 L 544.00 777.00 L 480.00 777.00 L 469.00 726.00 L 428.00 714.00 L 395.00 696.00 L 349.00 723.00 L 303.00 677.00 L 330.00 630.00 L 310.00 590.00 L 301.00 556.00 L 250.00 545.00 L 250.00 479.00 L 301.00 467.00 L 314.00 424.00 L 330.00 394.00 L 303.00 346.00 L 350.00 300.00 L 395.00 327.00 L 430.00 308.00 L 469.00 296.00 Z M 377.00 581.00 L 377.00 585.00 L 393.00 609.00 L 413.00 630.00 L 437.00 647.00 L 459.00 657.00 L 479.00 663.00 L 498.00 666.00 L 525.00 666.00 L 545.00 663.00 L 560.00 659.00 L 585.00 648.00 L 606.00 634.00 L 625.00 616.00 L 634.00 605.00 L 647.00 584.00 L 647.00 581.00 L 622.00 581.00 L 611.00 597.00 L 594.00 614.00 L 580.00 624.00 L 561.00 634.00 L 543.00 640.00 L 526.00 643.00 L 498.00 643.00 L 468.00 636.00 L 445.00 625.00 L 430.00 614.00 L 413.00 597.00 L 402.00 581.00 Z M 377.00 438.00 L 377.00 441.00 L 402.00 441.00 L 414.00 425.00 L 429.00 410.00 L 449.00 396.00 L 466.00 388.00 L 486.00 382.00 L 499.00 380.00 L 524.00 380.00 L 542.00 383.00 L 555.00 387.00 L 580.00 399.00 L 596.00 411.00 L 609.00 424.00 L 622.00 441.00 L 646.00 441.00 L 646.00 437.00 L 630.00 413.00 L 613.00 395.00 L 599.00 384.00 L 588.00 377.00 L 567.00 367.00 L 548.00 361.00 L 523.00 357.00 L 500.00 357.00 L 479.00 360.00 L 464.00 364.00 L 439.00 375.00 L 418.00 389.00 L 397.00 409.00 Z M 407.00 472.00 L 405.00 472.00 L 404.00 471.00 L 402.00 471.00 L 401.00 470.00 L 397.00 470.00 L 396.00 469.00 L 354.00 469.00 L 354.00 479.00 L 353.00 480.00 L 353.00 490.00 L 354.00 491.00 L 353.00 492.00 L 353.00 537.00 L 354.00 538.00 L 354.00 540.00 L 353.00 541.00 L 353.00 553.00 L 375.00 553.00 L 375.00 529.00 L 376.00 528.00 L 399.00 528.00 L 400.00 527.00 L 403.00 527.00 L 404.00 526.00 L 406.00 526.00 L 407.00 525.00 L 410.00 524.00 L 412.00 522.00 L 413.00 522.00 L 419.00 516.00 L 419.00 515.00 L 423.00 508.00 L 423.00 505.00 L 424.00 504.00 L 424.00 492.00 L 423.00 491.00 L 422.00 486.00 L 419.00 482.00 L 419.00 481.00 L 414.00 476.00 L 413.00 476.00 L 411.00 474.00 L 410.00 474.00 Z M 553.00 471.00 L 541.00 478.00 L 534.00 485.00 L 528.00 496.00 L 526.00 504.00 L 526.00 518.00 L 531.00 533.00 L 536.00 540.00 L 544.00 547.00 L 549.00 550.00 L 561.00 554.00 L 566.00 554.00 L 567.00 555.00 L 583.00 554.00 L 598.00 548.00 L 607.00 541.00 L 607.00 505.00 L 570.00 505.00 L 570.00 521.00 L 586.00 521.00 L 587.00 522.00 L 587.00 531.00 L 579.00 536.00 L 573.00 536.00 L 572.00 537.00 L 562.00 535.00 L 557.00 532.00 L 552.00 527.00 L 548.00 519.00 L 547.00 507.00 L 551.00 497.00 L 560.00 489.00 L 566.00 487.00 L 577.00 487.00 L 584.00 490.00 L 590.00 495.00 L 592.00 495.00 L 601.00 486.00 L 603.00 483.00 L 603.00 480.00 L 589.00 471.00 L 577.00 468.00 L 565.00 468.00 Z M 624.00 469.00 L 624.00 488.00 L 648.00 488.00 L 649.00 489.00 L 649.00 553.00 L 670.00 553.00 L 670.00 489.00 L 671.00 488.00 L 695.00 488.00 L 695.00 469.00 Z M 440.00 469.00 L 440.00 488.00 L 464.00 488.00 L 465.00 489.00 L 465.00 553.00 L 486.00 553.00 L 486.00 489.00 L 487.00 488.00 L 510.00 488.00 L 510.00 469.00 Z M 375.00 489.00 L 376.00 488.00 L 394.00 488.00 L 395.00 489.00 L 396.00 489.00 L 398.00 491.00 L 399.00 491.00 L 400.00 492.00 L 400.00 493.00 L 401.00 494.00 L 401.00 495.00 L 402.00 496.00 L 402.00 502.00 L 401.00 503.00 L 401.00 504.00 L 400.00 505.00 L 400.00 506.00 L 398.00 508.00 L 397.00 508.00 L 396.00 509.00 L 395.00 509.00 L 394.00 510.00 L 391.00 510.00 L 390.00 511.00 L 377.00 511.00 L 375.00 509.00 Z" fill="#f8f8ff" fill-rule="evenodd"/>
</svg>
